<svg width="24" height="24" viewBox="0 0 24 24" fill="none" xmlns="http://www.w3.org/2000/svg">
<path d="M11.84 9.04982C11.2862 9.04982 10.7448 9.21404 10.2844 9.52171C9.82393 9.82938 9.46504 10.2667 9.25312 10.7783C9.04119 11.2899 8.98574 11.8529 9.09378 12.3961C9.20182 12.9392 9.46849 13.4381 9.86008 13.8297C10.2517 14.2213 10.7506 14.488 11.2937 14.596C11.8369 14.7041 12.3999 14.6486 12.9115 14.4367C13.4231 14.2248 13.8604 13.8659 14.1681 13.4054C14.4758 12.945 14.64 12.4036 14.64 11.8498C14.6413 11.4818 14.5698 11.1171 14.4295 10.7767C14.2893 10.4364 14.0831 10.1272 13.8228 9.86698C13.5626 9.60671 13.2534 9.40051 12.9131 9.26027C12.5727 9.12002 12.2081 9.0485 11.84 9.04982Z" fill="white"/>
<path fill-rule="evenodd" clip-rule="evenodd" d="M15.69 2H8C6.4087 2 4.88258 2.63214 3.75736 3.75736C2.63214 4.88258 2 6.4087 2 8V15.69C2 17.2813 2.63214 18.8074 3.75736 19.9326C4.88258 21.0579 6.4087 21.69 8 21.69H15.69C17.2813 21.69 18.8074 21.0579 19.9326 19.9326C21.0579 18.8074 21.69 17.2813 21.69 15.69V8C21.69 6.4087 21.0579 4.88258 19.9326 3.75736C18.8074 2.63214 17.2813 2 15.69 2ZM11.84 16.14C10.6996 16.1373 9.6069 15.6818 8.80237 14.8735C7.99784 14.0652 7.54735 12.9704 7.55 11.83C7.55265 10.6896 8.00823 9.5969 8.81651 8.79237C9.62479 7.98784 10.7196 7.53735 11.86 7.54C12.4247 7.54131 12.9836 7.65384 13.5048 7.87114C14.026 8.08845 14.4993 8.40629 14.8976 8.80651C15.296 9.20673 15.6116 9.6815 15.8265 10.2037C16.0414 10.7259 16.1513 11.2853 16.15 11.85C16.1487 12.4147 16.0362 12.9736 15.8189 13.4948C15.6015 14.016 15.2837 14.4893 14.8835 14.8876C14.4833 15.286 14.0085 15.6016 13.4863 15.8165C12.9641 16.0314 12.4047 16.1413 11.84 16.14ZM15.575 6.912C15.6588 7.11152 15.8 7.28159 15.9808 7.40055C16.1615 7.51951 16.3736 7.58198 16.59 7.58C16.7318 7.58 16.8723 7.55206 17.0033 7.49779C17.1343 7.44351 17.2534 7.36396 17.3537 7.26368C17.454 7.16339 17.5335 7.04433 17.5878 6.9133C17.6421 6.78227 17.67 6.64183 17.67 6.5C17.6715 6.3382 17.6369 6.1781 17.5688 6.03133C17.5007 5.88455 17.4008 5.75478 17.2763 5.65143C17.1518 5.54808 17.0058 5.47375 16.849 5.43382C16.6922 5.3939 16.5285 5.38938 16.3697 5.4206C16.2109 5.45183 16.0611 5.518 15.9311 5.61433C15.8011 5.71066 15.6942 5.83473 15.6181 5.97753C15.542 6.12032 15.4987 6.27827 15.4912 6.43991C15.4837 6.60154 15.5124 6.76281 15.575 6.912Z" fill="white"/>
</svg>
