<svg width="198" height="49" viewBox="0 0 198 49" fill="none" xmlns="http://www.w3.org/2000/svg">
<g clip-path="url(#clip0_1_1284)">
<path d="M38.6696 11.0164V0.558105L23.2613 14.7382L7.85302 0.558105V11.0164L0.632721 4.50322V48.3461H13.0263V22.7028L23.2613 31.9701L33.4963 22.7028V48.3461H45.8526V4.50322L38.6696 11.0164ZM5.84325 43.1728V16.1525L7.85302 17.9762V43.1356H5.84325V43.1728ZM33.4963 15.7059L23.2613 24.9731L13.0263 15.7059V12.3562L23.2613 21.7724L33.4963 12.3562V15.7059ZM40.6793 43.1728H38.6696V18.0134L40.6793 16.1897V43.1728Z" fill="#EA223C"/>
<path d="M58.879 23.3729V36.7714H54.8222V13.5846L66.9925 25.7549L79.2 13.5474V36.7714H75.1433V23.3729L66.9925 31.5237L58.879 23.3729ZM110.91 32.7147V36.7714H106.667V14.1801H110.91V26.7226L123.452 14.1801H129.444L118.13 25.4944L129.444 36.8086H123.452L115.153 28.509L110.91 32.7147Z" fill="#010101"/>
<path d="M142.657 26.3505V36.7715H138.451V26.3505L126.281 14.1802H132.273L140.573 22.4798L148.872 14.1802H154.827L142.657 26.3505Z" fill="#010101"/>
<path d="M158.921 32.5287H174.441V36.7715H154.678V14.1802H174.441V18.423H158.921V23.373H173.027L171.612 27.6159H158.921V32.5287ZM181.512 32.5287H197.032V36.7715H177.27V14.1802H197.032V18.423H181.512V23.373H195.618L194.204 27.6159H181.512V32.5287ZM101.642 36.7715H105.997L92.9707 14.1802L79.9443 36.7715H84.2988L87.3135 31.561H98.7022L101.642 36.7715ZM89.4349 27.802L92.9334 21.6982L96.4319 27.802H89.4349Z" fill="#010101"/>
</g>
<defs>
<clipPath id="clip0_1_1284">
<rect width="198" height="48.3462" fill="white"/>
</clipPath>
</defs>
</svg>
