<svg width="99" height="25" viewBox="0 0 99 25" fill="none" xmlns="http://www.w3.org/2000/svg">
<g clip-path="url(#clip0_1_1255)">
<path d="M19.3348 5.50827V0.279136L11.6306 7.36917L3.92651 0.279136V5.50827L0.316355 2.25169V24.1731H6.51316V11.3515L11.6306 15.9852L16.7481 11.3515V24.1731H22.9263V2.25169L19.3348 5.50827ZM2.92162 21.5865V8.07632L3.92651 8.98816V21.5679H2.92162V21.5865ZM16.7481 7.85301L11.6306 12.4867L6.51316 7.85301V6.1782L11.6306 10.8863L16.7481 6.1782V7.85301ZM20.3397 21.5865H19.3348V9.00677L20.3397 8.09493V21.5865Z" fill="#EA223C"/>
<path d="M29.4395 11.6865V18.3857H27.4111V6.79229L33.4962 12.8774L39.6 6.77368V18.3857H37.5716V11.6865L33.4962 15.7618L29.4395 11.6865ZM55.4549 16.3573V18.3857H53.3335V7.09004H55.4549V13.3613L61.7261 7.09004H64.7222L59.065 12.7472L64.7222 18.4043H61.7261L57.5763 14.2545L55.4549 16.3573Z" fill="#010101"/>
<path d="M71.3284 13.1752V18.3857H69.2256V13.1752L63.1404 7.09004H66.1365L70.2863 11.2399L74.4361 7.09004H77.4135L71.3284 13.1752Z" fill="#010101"/>
<path d="M79.4605 16.2643H87.2205V18.3857H77.3391V7.09004H87.2205V9.21147H79.4605V11.6865H86.5133L85.8062 13.8079H79.4605V16.2643ZM90.7562 16.2643H98.5162V18.3857H88.6348V7.09004H98.5162V9.21147H90.7562V11.6865H97.809L97.1019 13.8079H90.7562V16.2643ZM50.8212 18.3857H52.9985L46.4853 7.09004L39.9722 18.3857H42.1494L43.6568 15.7805H49.3511L50.8212 18.3857ZM44.7175 13.9009L46.4667 10.8491L48.216 13.9009H44.7175Z" fill="#010101"/>
</g>
<defs>
<clipPath id="clip0_1_1255">
<rect width="98.6186" height="24.08" fill="white" transform="scale(1.00387)"/>
</clipPath>
</defs>
</svg>
