<svg width="25" height="24" viewBox="0 0 25 24" fill="none" xmlns="http://www.w3.org/2000/svg">
<path d="M4.5 7L10.7 11.65C11.2193 12.0395 11.8509 12.25 12.5 12.25C13.1491 12.25 13.7807 12.0395 14.3 11.65L20.5 7" stroke="white" stroke-width="2" stroke-linecap="round" stroke-linejoin="round"/>
<path d="M19.5 5H5.5C4.96957 5 4.46086 5.21071 4.08579 5.58579C3.71071 5.96086 3.5 6.46957 3.5 7V17C3.5 17.5304 3.71071 18.0391 4.08579 18.4142C4.46086 18.7893 4.96957 19 5.5 19H19.5C20.0304 19 20.5391 18.7893 20.9142 18.4142C21.2893 18.0391 21.5 17.5304 21.5 17V7C21.5 6.46957 21.2893 5.96086 20.9142 5.58579C20.5391 5.21071 20.0304 5 19.5 5Z" stroke="white" stroke-width="2" stroke-linecap="round"/>
</svg>
