<svg width="24" height="24" viewBox="0 0 24 24" fill="none" xmlns="http://www.w3.org/2000/svg">
<path fill-rule="evenodd" clip-rule="evenodd" d="M17.974 16.9771C17.976 17.1751 17.912 17.2321 17.72 17.2271C17.1727 17.2119 16.6252 17.2129 16.078 17.2301C15.803 17.2421 15.721 17.1701 15.725 16.8851C15.741 15.6541 15.73 14.4221 15.733 13.1911C15.733 12.8541 15.71 12.5191 15.586 12.2011C15.376 11.6641 15.014 11.3011 14.414 11.2481C13.774 11.1921 13.31 11.4831 12.997 12.0221C12.791 12.3751 12.744 12.7701 12.745 13.1731C12.748 14.4171 12.738 15.6611 12.752 16.9041C12.756 17.1721 12.674 17.2391 12.418 17.2301C11.8708 17.2137 11.3232 17.213 10.776 17.2281C10.566 17.2331 10.502 17.1701 10.502 16.9581C10.509 14.3961 10.508 11.8341 10.504 9.27207C10.504 9.08807 10.541 9.00507 10.748 9.01007C11.333 9.02207 11.918 9.02207 12.502 9.01007C12.704 9.00607 12.757 9.08007 12.749 9.26907C12.736 9.57507 12.746 9.88307 12.746 10.2691C13.613 9.19907 14.656 8.84707 15.895 9.09707C17.095 9.33907 17.921 10.4191 17.955 11.8661C17.995 13.5681 17.964 15.2731 17.974 16.9771ZM7.89099 8.05707C7.71948 8.05789 7.54952 8.02445 7.39111 7.95871C7.23269 7.89297 7.089 7.79625 6.96847 7.67423C6.84794 7.5522 6.75299 7.40734 6.6892 7.24812C6.62541 7.08891 6.59406 6.91856 6.59699 6.74707C6.59672 6.40102 6.73338 6.06891 6.97714 5.82328C7.2209 5.57765 7.55194 5.43845 7.89799 5.43607C8.24403 5.44003 8.57439 5.58096 8.81674 5.82799C9.05908 6.07502 9.19366 6.40802 9.19099 6.75407C9.19327 6.92556 9.16122 7.09577 9.09673 7.25469C9.03225 7.41361 8.93662 7.55803 8.81549 7.67944C8.69436 7.80085 8.55016 7.89681 8.39139 7.96166C8.23262 8.02651 8.06248 8.05895 7.89099 8.05707ZM8.69499 17.2301C8.14814 17.2129 7.6009 17.2119 7.05399 17.2271C6.85799 17.2311 6.76999 17.1951 6.76999 16.9671C6.77799 14.4071 6.77699 11.8471 6.77099 9.28707C6.77099 9.08107 6.81999 9.00407 7.03899 9.01007C7.59799 9.02407 8.15799 9.02807 8.71599 9.00807C8.97299 8.99907 9.01999 9.09407 9.01899 9.32707C9.00899 10.5951 9.01399 11.8621 9.01399 13.1301C9.01399 14.3851 9.00699 15.6401 9.01999 16.8961C9.02299 17.1511 8.96399 17.2411 8.69499 17.2301ZM20.918 6.03807C20.868 5.63007 20.86 5.21107 20.636 4.84707C19.907 3.66507 18.902 2.99207 17.462 3.00007C13.817 3.01907 10.172 3.00007 6.52699 3.01307C5.97899 3.01407 5.41599 3.03307 4.91899 3.32607C3.70499 4.04507 2.99299 5.05007 2.99999 6.52107C3.01699 10.1781 2.99999 13.8351 3.01199 17.4931C3.01399 18.0081 3.02199 18.5481 3.29199 19.0121C3.92899 20.1101 4.76899 20.9251 6.14899 20.9201C6.18899 20.9201 6.21899 20.9381 6.25299 20.9561H17.747C17.81 20.8991 17.888 20.9271 17.96 20.9181C18.373 20.8661 18.8 20.8641 19.167 20.6281C20.192 19.9641 20.946 19.1301 20.923 17.8101C20.923 17.7871 20.939 17.7661 20.957 17.7471V6.25307C20.905 6.18807 20.927 6.11007 20.918 6.03807Z" fill="white"/>
</svg>
