<svg width="92" height="11" viewBox="0 0 92 11" fill="none" xmlns="http://www.w3.org/2000/svg">
<g clip-path="url(#clip0_1_1272)">
<path d="M0 0.958012H2.393L4.92 7.25501H5.028L7.555 0.958012H9.941V10.331H8.066V4.23201H7.988L5.614 10.286H4.332L1.958 4.20901H1.882V10.331H0V0.958012ZM13.279 10.463C12.874 10.472 12.472 10.392 12.1 10.228C11.769 10.08 11.487 9.83701 11.289 9.52901C11.08 9.18101 10.977 8.77701 10.991 8.36901C10.981 8.02801 11.053 7.69001 11.202 7.38401C11.337 7.12501 11.535 6.90501 11.776 6.74401C12.03 6.57601 12.309 6.45201 12.602 6.37801C12.922 6.29301 13.248 6.23601 13.578 6.20601C13.977 6.16301 14.3 6.12101 14.545 6.08301C14.732 6.06501 14.913 6.00601 15.077 5.91101C15.19 5.83601 15.254 5.70401 15.246 5.56701V5.54001C15.26 5.28601 15.163 5.03901 14.979 4.86701C14.764 4.69601 14.495 4.61101 14.223 4.62901C13.933 4.61401 13.646 4.69501 13.404 4.86001C13.21 5.00101 13.067 5.20501 13 5.43801L11.235 5.29201C11.317 4.88201 11.499 4.50001 11.765 4.18201C12.038 3.85901 12.385 3.61101 12.776 3.45901C13.239 3.28201 13.73 3.19601 14.225 3.20601C14.599 3.20601 14.971 3.25401 15.333 3.34901C15.668 3.43301 15.984 3.57701 16.268 3.77601C16.54 3.96401 16.763 4.21801 16.917 4.51401C17.083 4.84601 17.165 5.21401 17.156 5.58601V10.331H15.345V9.35701H15.291C15.181 9.57701 15.031 9.77301 14.848 9.93501C14.65 10.108 14.421 10.241 14.174 10.324C13.886 10.421 13.583 10.468 13.279 10.463ZM13.827 9.11901C14.085 9.12401 14.34 9.06501 14.57 8.94701C14.776 8.84101 14.951 8.68101 15.076 8.48201C15.199 8.28601 15.263 8.05701 15.261 7.82301V7.07301C15.184 7.12001 15.102 7.15601 15.017 7.18101C14.914 7.21201 14.798 7.24201 14.669 7.26701C14.541 7.29301 14.412 7.31601 14.284 7.33601L13.935 7.39001C13.733 7.41601 13.535 7.47001 13.347 7.55001C13.194 7.61101 13.06 7.71301 12.958 7.84401C12.862 7.97701 12.814 8.13901 12.819 8.30301C12.806 8.54201 12.913 8.77101 13.102 8.91101C13.317 9.05601 13.57 9.12901 13.827 9.11901ZM20.986 10.446C20.484 10.453 19.991 10.308 19.568 10.031C19.122 9.73301 18.771 9.30801 18.557 8.80901C18.297 8.18301 18.175 7.50501 18.198 6.82501C18.175 6.13401 18.305 5.44701 18.579 4.81501C18.795 4.32201 19.146 3.90401 19.59 3.61001C20.007 3.34501 20.49 3.20701 20.981 3.21101C21.314 3.19901 21.645 3.26701 21.947 3.40901C22.189 3.52601 22.405 3.69501 22.579 3.90301C22.725 4.07901 22.848 4.27401 22.944 4.48301H23.003V0.958012H24.907V10.331H23.02V9.20001H22.939C22.84 9.41001 22.713 9.60601 22.562 9.78001C22.385 9.98001 22.17 10.141 21.93 10.253C21.633 10.388 21.311 10.454 20.986 10.446ZM21.591 8.89701C21.873 8.90601 22.149 8.81401 22.373 8.63901C22.599 8.44801 22.769 8.19701 22.865 7.91501C22.985 7.56301 23.042 7.19201 23.034 6.82001C23.043 6.44901 22.985 6.08001 22.865 5.73101C22.771 5.45001 22.6 5.20201 22.373 5.01601C22.147 4.84501 21.871 4.75701 21.59 4.76501C21.303 4.75501 21.023 4.84801 20.796 5.02701C20.57 5.21601 20.401 5.46701 20.307 5.75001C20.191 6.09401 20.134 6.45601 20.139 6.82001C20.132 7.18801 20.189 7.55501 20.307 7.90301C20.4 8.18801 20.569 8.44201 20.794 8.63601C21.022 8.81401 21.304 8.90501 21.591 8.89401V8.89701ZM29.413 10.469C28.777 10.487 28.148 10.334 27.588 10.026C27.082 9.73801 26.671 9.30201 26.409 8.77301C26.121 8.17601 25.979 7.51501 25.996 6.84901C25.981 6.19001 26.123 5.53601 26.409 4.94401C26.669 4.41401 27.073 3.97101 27.571 3.66701C28.107 3.35301 28.717 3.19501 29.334 3.21101C29.767 3.20801 30.197 3.28201 30.604 3.43101C30.99 3.57601 31.342 3.80301 31.636 4.09701C31.941 4.41401 32.176 4.79401 32.323 5.21301C32.496 5.71601 32.579 6.24701 32.569 6.78001V7.31601H26.761V6.10201H30.776C30.781 5.84201 30.719 5.58401 30.596 5.35501C30.48 5.14101 30.31 4.96201 30.102 4.83901C29.878 4.71201 29.625 4.64801 29.369 4.65301C29.1 4.64801 28.834 4.71901 28.601 4.85801C28.383 4.98901 28.202 5.17701 28.079 5.40201C27.952 5.63301 27.885 5.89401 27.885 6.15901V7.30901C27.877 7.62001 27.942 7.92901 28.075 8.20901C28.195 8.45401 28.383 8.65801 28.616 8.79601C28.87 8.93801 29.156 9.00901 29.445 9.00001C29.643 9.00301 29.84 8.97201 30.028 8.90901C30.197 8.85301 30.351 8.76001 30.48 8.63601C30.607 8.51001 30.705 8.35701 30.766 8.18601L32.532 8.30501C32.449 8.72501 32.261 9.11601 31.984 9.43801C31.692 9.77201 31.326 10.03 30.916 10.19C30.437 10.38 29.927 10.474 29.413 10.469ZM37.324 2.39501C37.053 2.40101 36.791 2.29601 36.596 2.10401C36.404 1.92901 36.295 1.67901 36.295 1.41601C36.295 1.15301 36.404 0.903012 36.596 0.728012C37.007 0.340012 37.641 0.340012 38.052 0.728012C38.245 0.902012 38.355 1.15301 38.355 1.41601C38.358 1.68201 38.247 1.93701 38.052 2.11301C37.856 2.30301 37.594 2.40401 37.324 2.39501ZM36.365 10.331V3.30201H38.274V10.331H36.365ZM41.516 6.27401V10.331H39.609V3.30201H41.427V4.54101H41.508C41.655 4.14201 41.923 3.80101 42.275 3.56901C42.665 3.32101 43.119 3.19701 43.579 3.21101C44.016 3.20001 44.448 3.31101 44.829 3.53101C45.186 3.74701 45.474 4.06401 45.658 4.44301C45.864 4.88301 45.965 5.36701 45.953 5.85501V10.329H44.045V6.19901C44.068 5.83201 43.952 5.47001 43.722 5.18901C43.487 4.93901 43.158 4.80701 42.82 4.82501C42.585 4.82201 42.353 4.88201 42.146 4.99701C41.949 5.11101 41.79 5.28301 41.688 5.49001C41.572 5.73401 41.513 6.00301 41.516 6.27401ZM50.044 10.331V0.958012H56.11V2.59201H51.978V4.82901H55.711V6.46201H51.978V10.334L50.044 10.331ZM57.077 10.331V3.30201H58.931V4.52801H59.001C59.099 4.13601 59.321 3.78801 59.633 3.53801C59.927 3.31101 60.287 3.19001 60.656 3.19401C60.759 3.19501 60.862 3.20101 60.964 3.21301C61.062 3.22301 61.16 3.24001 61.256 3.26301V4.99901C61.134 4.96501 61.009 4.94101 60.883 4.92701C60.739 4.90601 60.594 4.89501 60.449 4.89401C60.187 4.88901 59.929 4.95301 59.699 5.08001C59.482 5.20001 59.302 5.37901 59.178 5.59601C59.049 5.82701 58.983 6.08901 58.988 6.35501V10.331H57.077ZM63.814 10.463C63.408 10.472 63.006 10.392 62.634 10.228C62.302 10.081 62.019 9.83801 61.82 9.52901C61.611 9.18101 61.507 8.77701 61.522 8.36901C61.512 8.02801 61.584 7.69001 61.733 7.38401C61.868 7.12501 62.066 6.90501 62.307 6.74401C62.561 6.57601 62.84 6.45201 63.133 6.37801C63.453 6.29401 63.779 6.23601 64.108 6.20601C64.508 6.16301 64.831 6.12101 65.076 6.08301C65.263 6.06401 65.445 6.00601 65.61 5.91101C65.722 5.83601 65.787 5.70401 65.778 5.56701V5.54001C65.794 5.28601 65.696 5.03801 65.512 4.86701C65.298 4.69601 65.03 4.61101 64.759 4.62901C64.468 4.61301 64.18 4.69401 63.938 4.86001C63.744 5.00101 63.601 5.20401 63.534 5.43801L61.77 5.29201C61.851 4.88201 62.032 4.50001 62.297 4.18201C62.574 3.85901 62.925 3.61101 63.318 3.45901C63.781 3.28201 64.273 3.19601 64.767 3.20601C65.138 3.20401 65.508 3.25001 65.868 3.34201C66.202 3.42601 66.519 3.57101 66.804 3.76901C67.075 3.95801 67.297 4.21101 67.452 4.50701C67.617 4.84001 67.698 5.21101 67.687 5.58401V10.331H65.883V9.35701H65.829C65.717 9.57801 65.563 9.77401 65.377 9.93501C65.18 10.108 64.951 10.241 64.703 10.324C64.416 10.42 64.116 10.467 63.814 10.463ZM64.366 9.11901C64.624 9.12401 64.879 9.06501 65.109 8.94701C65.316 8.84101 65.49 8.68101 65.615 8.48201C65.736 8.28501 65.799 8.05601 65.795 7.82301V7.07301C65.719 7.12001 65.637 7.15601 65.551 7.18101C65.446 7.21201 65.332 7.24201 65.204 7.26701C65.076 7.29301 64.946 7.31601 64.818 7.33601L64.467 7.39001C64.266 7.41701 64.069 7.47001 63.881 7.55001C63.728 7.61101 63.594 7.71201 63.492 7.84401C63.396 7.97701 63.347 8.13901 63.352 8.30301C63.339 8.54201 63.446 8.77201 63.637 8.91101C63.852 9.05801 64.108 9.13001 64.366 9.11901ZM68.985 10.331V3.30201H70.803V4.54101H70.884C71.015 4.14701 71.266 3.80501 71.602 3.56701C72.336 3.09101 73.273 3.09101 74.008 3.56701C74.335 3.80101 74.57 4.14501 74.672 4.54001H74.742C74.882 4.13801 75.151 3.79701 75.506 3.57201C75.898 3.32301 76.354 3.19701 76.817 3.20901C77.401 3.18601 77.968 3.41201 78.384 3.83201C78.785 4.25001 78.985 4.84001 78.985 5.60201V10.331H77.081V5.98901C77.106 5.66501 76.995 5.34501 76.776 5.10901C76.57 4.91301 76.296 4.80801 76.015 4.81701C75.709 4.79901 75.412 4.92201 75.204 5.15201C75.001 5.40001 74.897 5.71601 74.913 6.03901V10.331H73.059V5.94701C73.075 5.64401 72.971 5.34701 72.771 5.12301C72.571 4.91601 72.295 4.80501 72.011 4.81701C71.81 4.81301 71.612 4.87001 71.442 4.97901C71.269 5.09001 71.13 5.24701 71.039 5.43301C70.935 5.64701 70.884 5.88301 70.891 6.12101V10.331H68.985ZM83.439 10.469C82.802 10.487 82.173 10.334 81.612 10.026C81.106 9.73701 80.695 9.30101 80.433 8.77301C80.146 8.17501 80.005 7.51501 80.021 6.84901C80.007 6.19001 80.148 5.53601 80.433 4.94401C80.693 4.41401 81.097 3.97101 81.595 3.66701C82.131 3.35301 82.742 3.19601 83.359 3.21101C83.792 3.20801 84.222 3.28201 84.63 3.43101C85.016 3.57601 85.368 3.80301 85.661 4.09701C85.967 4.41301 86.201 4.79401 86.347 5.21301C86.521 5.71601 86.605 6.24701 86.595 6.78001V7.31601H80.786V6.10201H84.802C84.806 5.84201 84.744 5.58401 84.621 5.35501C84.506 5.14001 84.334 4.96201 84.126 4.83901C83.902 4.71201 83.649 4.64701 83.393 4.65301C83.124 4.64801 82.859 4.71901 82.626 4.85801C82.408 4.98801 82.227 5.17601 82.104 5.40201C81.977 5.63301 81.91 5.89401 81.91 6.15901V7.30901C81.903 7.62001 81.968 7.92901 82.101 8.20901C82.22 8.45501 82.409 8.65901 82.642 8.79601C82.895 8.93801 83.181 9.00901 83.471 9.00001C83.668 9.00301 83.865 8.97301 84.052 8.90901C84.221 8.85301 84.376 8.76001 84.505 8.63601C84.633 8.51001 84.73 8.35601 84.792 8.18601L86.558 8.30501C86.474 8.72501 86.285 9.11601 86.008 9.43801C85.716 9.77201 85.351 10.029 84.942 10.19C84.463 10.38 83.952 10.474 83.439 10.469ZM87.654 10.331V3.30201H89.508V4.52801H89.58C89.677 4.13601 89.899 3.78701 90.211 3.53801C90.505 3.31101 90.865 3.19001 91.233 3.19401C91.336 3.19501 91.439 3.20101 91.542 3.21301C91.64 3.22301 91.737 3.24001 91.833 3.26301V4.99901C91.711 4.96501 91.587 4.94101 91.461 4.92701C91.317 4.90601 91.173 4.89501 91.028 4.89401C90.766 4.88901 90.507 4.95301 90.276 5.08001C90.06 5.20101 89.88 5.37901 89.756 5.59601C89.626 5.82701 89.56 6.08901 89.565 6.35501V10.331H87.654Z" fill="#222222"/>
</g>
<defs>
<clipPath id="clip0_1_1272">
<rect width="92" height="11" fill="white"/>
</clipPath>
</defs>
</svg>
