<svg width="185" height="55" viewBox="0 0 185 55" fill="none" xmlns="http://www.w3.org/2000/svg">
<g clip-path="url(#clip0_1_276)">
<path d="M170.267 0.00017875H14.7405C14.1736 0.00017875 13.6135 0.00017875 13.0481 0.00292875C12.5748 0.00567875 12.1053 0.0136675 11.6274 0.0203912C10.5893 0.0312562 9.55363 0.112484 8.5294 0.263368C7.50662 0.417537 6.51586 0.708188 5.59066 1.12549C4.66658 1.54633 3.82224 2.09317 3.08824 2.74615C2.35038 3.3973 1.73533 4.14995 1.26671 4.97515C0.796806 5.79871 0.470973 6.68122 0.300465 7.59222C0.128334 8.50205 0.0357099 9.4224 0.0234218 10.345C0.00907499 10.7665 0.00755991 11.1895 0 11.6111V43.3932C0.00755991 43.8202 0.00907499 44.2338 0.0234218 44.6609C0.0357138 45.5833 0.128338 46.5036 0.300465 47.4135C0.470502 48.325 0.796355 49.208 1.26671 50.0319C1.73511 50.8544 2.35025 51.6041 3.08824 52.2515C3.81946 52.9074 4.66434 53.4547 5.59066 53.8723C6.51585 54.2907 7.50651 54.5831 8.5294 54.7396C9.55381 54.8893 10.5894 54.9706 11.6274 54.9827C12.1053 54.9921 12.5748 54.9974 13.0481 54.9974C13.6135 55.0002 14.1737 55.0002 14.7405 55.0002H170.267C170.824 55.0002 171.388 55.0002 171.943 54.9974C172.415 54.9974 172.898 54.9921 173.368 54.9827C174.404 54.9712 175.439 54.8899 176.461 54.7396C177.488 54.582 178.481 54.2897 179.41 53.8723C180.337 53.4544 181.181 52.9073 181.911 52.2515C182.647 51.6014 183.264 50.8525 183.738 50.0319C184.205 49.2074 184.527 48.3245 184.694 47.4135C184.867 46.5035 184.963 45.5835 184.982 44.6609C184.988 44.2338 184.988 43.8202 184.988 43.3932C185 42.8937 185 42.3969 185 41.8893V13.1124C185 12.6088 185 12.1093 184.988 11.6111C184.988 11.1895 184.988 10.7665 184.982 10.3449C184.963 9.42226 184.867 8.50212 184.694 7.59216C184.527 6.68169 184.204 5.79924 183.738 4.9751C182.784 3.32107 181.27 1.97471 179.41 1.12537C178.481 0.709083 177.488 0.418509 176.461 0.263244C175.439 0.111695 174.406 0.0304394 173.368 0.0201987C172.898 0.0134888 172.415 0.00543125 171.943 0.00275C171.388 0 170.824 0.00017875 170.267 0.00017875Z" fill="#A6A6A6"/>
<path d="M13.0556 53.7969C12.5846 53.7969 12.1249 53.7915 11.6576 53.7822C10.6895 53.7709 9.7236 53.6959 8.76792 53.5579C7.87678 53.4214 7.01353 53.1675 6.2066 52.8045C5.40708 52.4446 4.67784 51.9727 4.04684 51.4067C3.40671 50.8475 2.87378 50.1988 2.46915 49.4865C2.06005 48.7696 1.77694 48.0011 1.62967 47.2079C1.47063 46.3555 1.38457 45.4937 1.37226 44.6297C1.36246 44.3398 1.34963 43.3742 1.34963 43.3742V11.611C1.34963 11.611 1.36329 10.6603 1.37234 10.381C1.38413 9.51841 1.46968 8.65789 1.62825 7.80688C1.77579 7.01147 2.05913 6.24078 2.46843 5.52149C2.87157 4.80967 3.40156 4.16056 4.03784 3.59931C4.6734 3.03273 5.40496 2.55832 6.20585 2.19341C7.01091 1.83162 7.87254 1.5795 8.76187 1.4455C9.72069 1.30602 10.6899 1.23062 11.6614 1.21991L13.0564 1.20312H171.936L173.348 1.22059C174.31 1.23076 175.27 1.30549 176.22 1.44415C177.119 1.57985 177.989 1.83373 178.805 2.19744C180.408 2.93286 181.714 4.09635 182.537 5.52485C182.94 6.23917 183.22 7.00358 183.365 7.79211C183.525 8.65011 183.615 9.51739 183.634 10.387C183.638 10.7764 183.638 11.1947 183.638 11.611C183.65 12.1266 183.65 12.6174 183.65 13.1122V41.8891C183.65 42.3886 183.65 42.8761 183.638 43.3675C183.638 43.8147 183.638 44.2243 183.632 44.6458C183.615 45.5 183.525 46.3518 183.368 47.1944C183.224 47.9934 182.942 48.7678 182.533 49.4906C182.125 50.1952 181.596 50.8383 180.963 51.396C180.331 51.965 179.601 52.4396 178.799 52.8019C177.988 53.1677 177.118 53.4225 176.22 53.5579C175.265 53.6968 174.299 53.7717 173.331 53.7822C172.878 53.7915 172.404 53.7969 171.943 53.7969L170.267 53.7996L13.0556 53.7969Z" fill="black"/>
<path d="M35.3129 27.9135C35.3276 26.7657 35.6314 25.6406 36.1961 24.6423C36.7607 23.6441 37.5677 22.8055 38.5422 22.2043C37.9232 21.3173 37.1065 20.5872 36.1571 20.0722C35.2077 19.5572 34.1517 19.2714 33.0729 19.2376C30.7717 18.9952 28.5408 20.6192 27.3682 20.6192C26.1728 20.6192 24.3674 19.2617 22.4232 19.3017C21.1656 19.3425 19.9401 19.7094 18.8659 20.3668C17.7917 21.0242 16.9054 21.9494 16.2937 23.0526C13.6433 27.6566 15.6202 34.4231 18.1589 38.1447C19.4291 39.967 20.9136 42.0027 22.8561 41.9305C24.7568 41.8514 25.4668 40.7143 27.7612 40.7143C30.0343 40.7143 30.7004 41.9305 32.6822 41.8846C34.7219 41.8514 36.0069 40.0542 37.2326 38.2145C38.1452 36.916 38.8474 35.4809 39.3133 33.9624C38.1284 33.4594 37.1172 32.6177 36.4058 31.5421C35.6943 30.4664 35.3143 29.2044 35.3129 27.9135Z" fill="white"/>
<path d="M31.5696 16.79C32.6817 15.4504 33.2296 13.7287 33.0969 11.9904C31.3979 12.1694 29.8284 12.9842 28.7013 14.2723C28.1503 14.9017 27.7282 15.6337 27.4592 16.4268C27.1903 17.2198 27.0798 18.0583 27.134 18.8943C27.9838 18.9031 28.8245 18.7181 29.5929 18.3537C30.3612 17.9892 31.0371 17.4545 31.5696 16.79Z" fill="white"/>
<path d="M67.5623 37.3169H61.0758L59.5181 41.9321H56.7706L62.9145 24.8574H65.769L71.9129 41.9321H69.1187L67.5623 37.3169ZM61.7477 35.1873H66.8893L64.3546 27.6973H64.2837L61.7477 35.1873Z" fill="white"/>
<path d="M85.1818 35.7083C85.1818 39.5769 83.1182 42.0623 80.0041 42.0623C79.2152 42.1037 78.4307 41.9214 77.7403 41.5363C77.0499 41.151 76.4816 40.5786 76.1004 39.8843H76.0414V46.0504H73.4947V29.4833H75.9599V31.5538H76.0068C76.4054 30.863 76.9834 30.2934 77.679 29.9058C78.3746 29.5183 79.162 29.3272 79.9573 29.3529C83.1061 29.3531 85.1818 31.8506 85.1818 35.7083ZM82.5641 35.7083C82.5641 33.1879 81.2661 31.5309 79.2855 31.5309C77.3396 31.5309 76.0309 33.2229 76.0309 35.7083C76.0309 38.2166 77.3396 39.8964 79.2855 39.8964C81.2661 39.8964 82.5641 38.2515 82.5641 35.7083Z" fill="white"/>
<path d="M98.8373 35.7083C98.8373 39.5769 96.7736 42.0623 93.6596 42.0623C92.8707 42.1037 92.0861 41.9214 91.3958 41.5363C90.7054 41.151 90.1371 40.5786 89.7558 39.8843H89.6969V46.0504H87.1502V29.4833H89.6154V31.5538H89.6621C90.0609 30.863 90.6388 30.2934 91.3344 29.9058C92.0301 29.5183 92.8174 29.3272 93.6127 29.3529C96.7616 29.3529 98.8373 31.8505 98.8373 35.7083ZM96.2196 35.7083C96.2196 33.1879 94.9214 31.5309 92.9408 31.5309C90.9951 31.5309 89.6862 33.2229 89.6862 35.7083C89.6862 38.2166 90.9951 39.8964 92.9408 39.8964C94.9216 39.8964 96.2196 38.2515 96.2196 35.7083Z" fill="white"/>
<path d="M107.863 37.1746C108.051 38.868 109.691 39.9796 111.931 39.9796C114.077 39.9796 115.622 38.8678 115.622 37.3412C115.622 36.0158 114.69 35.2223 112.485 34.6785L110.279 34.1454C107.155 33.388 105.704 31.9217 105.704 29.5423C105.704 26.5962 108.263 24.5726 111.896 24.5726C115.492 24.5726 117.957 26.5962 118.04 29.5423H115.469C115.315 27.8383 113.911 26.8098 111.86 26.8098C109.808 26.8098 108.405 27.8504 108.405 29.3651C108.405 30.5722 109.301 31.2825 111.494 31.8263L113.369 32.2882C116.861 33.1167 118.312 34.5239 118.312 37.0215C118.312 40.216 115.776 42.2166 111.742 42.2166C107.968 42.2166 105.42 40.2629 105.256 37.1745L107.863 37.1746Z" fill="white"/>
<path d="M123.808 26.5372V29.4833H126.167V31.5069H123.808V38.3698C123.808 39.436 124.28 39.9328 125.317 39.9328C125.597 39.9278 125.877 39.9081 126.155 39.8736V41.8851C125.689 41.9726 125.215 42.0122 124.74 42.0032C122.229 42.0032 121.249 41.0565 121.249 38.6423V31.5069H119.445V29.4833H121.249V26.5372H123.808Z" fill="white"/>
<path d="M127.534 35.7083C127.534 31.7915 129.833 29.3303 133.418 29.3303C137.015 29.3303 139.304 31.7915 139.304 35.7083C139.304 39.636 137.027 42.0865 133.418 42.0865C129.81 42.0865 127.534 39.636 127.534 35.7083ZM136.709 35.7083C136.709 33.0214 135.481 31.4357 133.418 31.4357C131.354 31.4357 130.128 33.0335 130.128 35.7083C130.128 38.4059 131.354 39.9798 133.418 39.9798C135.481 39.9798 136.709 38.4059 136.709 35.7083Z" fill="white"/>
<path d="M141.403 29.4833H143.833V31.6022H143.892C144.055 30.9404 144.441 30.3556 144.985 29.946C145.529 29.5364 146.197 29.3269 146.875 29.3529C147.168 29.352 147.461 29.384 147.748 29.4484V31.8385C147.378 31.7248 146.991 31.6727 146.604 31.6841C146.234 31.669 145.865 31.7344 145.522 31.8759C145.18 32.0174 144.873 32.2315 144.621 32.5036C144.369 32.7757 144.178 33.0994 144.062 33.4522C143.946 33.8052 143.908 34.179 143.949 34.5482V41.9321H141.403V29.4833Z" fill="white"/>
<path d="M159.489 38.2757C159.147 40.5357 156.954 42.0865 154.147 42.0865C150.538 42.0865 148.297 39.6601 148.297 35.7675C148.297 31.8627 150.55 29.3303 154.041 29.3303C157.473 29.3303 159.632 31.6962 159.632 35.4707V36.3462H150.868V36.5006C150.828 36.9588 150.885 37.4203 151.037 37.8546C151.187 38.2888 151.429 38.6859 151.744 39.0195C152.06 39.3529 152.443 39.6153 152.868 39.7889C153.291 39.9626 153.749 40.0436 154.206 40.0267C154.808 40.0833 155.412 39.9435 155.928 39.6279C156.444 39.3125 156.846 38.8382 157.072 38.2757H159.489ZM150.881 34.5603H157.083C157.106 34.1484 157.044 33.7362 156.901 33.3494C156.757 32.9627 156.536 32.61 156.25 32.3133C155.965 32.0167 155.621 31.7824 155.24 31.6254C154.86 31.4684 154.452 31.3919 154.041 31.4007C153.625 31.3983 153.214 31.4783 152.831 31.636C152.447 31.7937 152.097 32.0262 151.804 32.3199C151.511 32.6138 151.278 32.9629 151.119 33.3475C150.96 33.7319 150.879 34.1441 150.881 34.5603Z" fill="white"/>
<path d="M64.6202 12.7793C65.1541 12.7408 65.6898 12.8218 66.1889 13.0162C66.6878 13.2107 67.1376 13.5139 67.5055 13.9039C67.8736 14.2938 68.1509 14.7609 68.3172 15.2715C68.4836 15.7819 68.535 16.3231 68.4677 16.8559C68.4677 19.477 67.0558 20.9836 64.6202 20.9836H61.6667V12.7793H64.6202ZM62.9367 19.8234H64.4784C64.8599 19.8462 65.2417 19.7835 65.5959 19.6397C65.9502 19.4959 66.2681 19.2745 66.5264 18.9919C66.7847 18.7092 66.977 18.3724 67.0891 18.0058C67.2013 17.6391 67.2307 17.252 67.1749 16.8726C67.2265 16.4948 67.1943 16.1101 67.0805 15.7461C66.9664 15.3823 66.7738 15.0482 66.516 14.7677C66.2584 14.4873 65.942 14.2676 65.5898 14.1243C65.2374 13.9809 64.8579 13.9175 64.4784 13.9387H62.9367V19.8234Z" fill="white"/>
<path d="M69.9022 17.885C69.8634 17.4782 69.9099 17.0677 70.0384 16.6798C70.1671 16.2919 70.375 15.9354 70.649 15.6329C70.923 15.3304 71.2569 15.0887 71.6295 14.9234C72.002 14.758 72.4049 14.6726 72.8123 14.6726C73.2196 14.6726 73.6225 14.758 73.9951 14.9234C74.3675 15.0887 74.7015 15.3304 74.9756 15.6329C75.2495 15.9354 75.4575 16.2919 75.5861 16.6798C75.7147 17.0677 75.7611 17.4782 75.7223 17.885C75.7619 18.2924 75.716 18.7034 75.5877 19.092C75.4594 19.4804 75.2517 19.8377 74.9776 20.1407C74.7036 20.4438 74.3693 20.686 73.9964 20.8517C73.6234 21.0174 73.2201 21.1031 72.8123 21.1031C72.4045 21.1031 72.001 21.0174 71.6282 20.8517C71.2553 20.686 70.9211 20.4438 70.647 20.1407C70.3729 19.8377 70.165 19.4804 70.0368 19.092C69.9085 18.7034 69.8627 18.2924 69.9022 17.885ZM74.4696 17.885C74.4696 16.543 73.8689 15.7582 72.8142 15.7582C71.7557 15.7582 71.1602 16.543 71.1602 17.885C71.1602 19.2379 71.7557 20.0167 72.8142 20.0167C73.8689 20.0167 74.4696 19.2325 74.4696 17.885Z" fill="white"/>
<path d="M83.4587 20.9835H82.1955L80.9201 16.4234H80.8238L79.5537 20.9835H78.3024L76.6015 14.792H77.8368L78.9421 19.5165H79.0332L80.3018 14.792H81.4702L82.7388 19.5165H82.8352L83.9352 14.792H85.153L83.4587 20.9835Z" fill="white"/>
<path d="M86.5836 14.7919H87.7559V15.7756H87.8469C88.0013 15.4222 88.2617 15.1262 88.5917 14.9285C88.9218 14.7308 89.3051 14.6412 89.6883 14.6725C89.9885 14.6498 90.29 14.6953 90.5704 14.8054C90.8508 14.9156 91.1029 15.0876 91.3081 15.3087C91.5132 15.5299 91.666 15.7945 91.7553 16.0829C91.8447 16.3715 91.8683 16.6765 91.8241 16.9753V20.9834H90.6064V17.2822C90.6064 16.2871 90.1754 15.7924 89.2748 15.7924C89.0709 15.7828 88.8674 15.8177 88.6783 15.8944C88.4891 15.9711 88.3187 16.088 88.1787 16.2371C88.0388 16.3861 87.9326 16.5638 87.8675 16.7578C87.8024 16.9519 87.7798 17.1578 87.8014 17.3614V20.9836H86.5836V14.7919Z" fill="white"/>
<path d="M93.7647 12.375H94.9824V20.9835H93.7647V12.375Z" fill="white"/>
<path d="M96.6754 17.885C96.6366 17.4782 96.6831 17.0676 96.8116 16.6797C96.9403 16.2918 97.1483 15.9353 97.4222 15.6328C97.6963 15.3303 98.0303 15.0887 98.4029 14.9233C98.7755 14.7579 99.1784 14.6725 99.5858 14.6725C99.9932 14.6725 100.396 14.7579 100.769 14.9233C101.141 15.0887 101.475 15.3303 101.749 15.6328C102.023 15.9353 102.231 16.2918 102.36 16.6797C102.488 17.0676 102.535 17.4782 102.496 17.885C102.536 18.2924 102.49 18.7034 102.361 19.092C102.233 19.4804 102.025 19.8377 101.751 20.1407C101.477 20.4438 101.143 20.686 100.77 20.8517C100.397 21.0174 99.9936 21.1031 99.5858 21.1031C99.1778 21.1031 98.7745 21.0174 98.4016 20.8517C98.0286 20.686 97.6944 20.4438 97.4203 20.1407C97.1462 19.8377 96.9384 19.4804 96.8101 19.092C96.6818 18.7034 96.6359 18.2924 96.6754 17.885ZM101.243 17.885C101.243 16.543 100.642 15.7582 99.5874 15.7582C98.5288 15.7582 97.9334 16.543 97.9334 17.885C97.9334 19.2379 98.5289 20.0167 99.5874 20.0167C100.642 20.0167 101.243 19.2325 101.243 17.885Z" fill="white"/>
<path d="M103.778 19.2325C103.778 18.1181 104.605 17.4756 106.073 17.3843L107.745 17.2876V16.7531C107.745 16.0992 107.314 15.73 106.481 15.73C105.801 15.73 105.331 15.9804 105.195 16.4182H104.016C104.141 15.3546 105.138 14.6725 106.538 14.6725C108.085 14.6725 108.957 15.4452 108.957 16.7531V20.9836H107.785V20.1135H107.689C107.493 20.4256 107.218 20.68 106.893 20.8508C106.567 21.0215 106.202 21.1025 105.835 21.0856C105.576 21.1126 105.314 21.0849 105.066 21.0042C104.819 20.9235 104.591 20.7915 104.397 20.617C104.203 20.4424 104.048 20.229 103.941 19.9906C103.835 19.7521 103.779 19.4939 103.778 19.2325ZM107.745 18.7036V18.1859L106.238 18.2825C105.388 18.3396 105.003 18.6296 105.003 19.1755C105.003 19.7328 105.484 20.057 106.147 20.057C106.341 20.0768 106.537 20.0571 106.723 19.9992C106.91 19.9413 107.083 19.8465 107.232 19.7201C107.381 19.5939 107.503 19.4388 107.591 19.2642C107.679 19.0895 107.732 18.8988 107.745 18.7036Z" fill="white"/>
<path d="M110.558 17.885C110.558 15.9287 111.56 14.6893 113.119 14.6893C113.505 14.6715 113.888 14.7642 114.223 14.9566C114.558 15.1488 114.831 15.433 115.011 15.7755H115.102V12.375H116.32V20.9835H115.153V20.0053H115.057C114.863 20.3456 114.58 20.6261 114.238 20.8165C113.897 21.007 113.51 21.1001 113.119 21.0855C111.549 21.0856 110.558 19.8462 110.558 17.885ZM111.816 17.885C111.816 19.1983 112.433 19.9885 113.464 19.9885C114.491 19.9885 115.125 19.1869 115.125 17.8904C115.125 16.6001 114.484 15.7871 113.464 15.7871C112.439 15.7871 111.816 16.5826 111.816 17.885Z" fill="white"/>
<path d="M121.359 17.885C121.32 17.4782 121.366 17.0677 121.495 16.6798C121.624 16.2919 121.831 15.9354 122.105 15.6329C122.379 15.3304 122.713 15.0887 123.086 14.9234C123.458 14.758 123.861 14.6726 124.269 14.6726C124.676 14.6726 125.079 14.758 125.452 14.9234C125.824 15.0887 126.158 15.3304 126.432 15.6329C126.706 15.9354 126.914 16.2919 127.043 16.6798C127.171 17.0677 127.218 17.4782 127.179 17.885C127.218 18.2924 127.172 18.7034 127.044 19.092C126.916 19.4804 126.708 19.8377 126.434 20.1407C126.16 20.4438 125.826 20.686 125.453 20.8517C125.08 21.0174 124.677 21.1031 124.269 21.1031C123.861 21.1031 123.457 21.0174 123.085 20.8517C122.712 20.686 122.378 20.4438 122.103 20.1407C121.829 19.8377 121.621 19.4804 121.493 19.092C121.365 18.7034 121.319 18.2924 121.359 17.885ZM125.926 17.885C125.926 16.543 125.325 15.7582 124.271 15.7582C123.212 15.7582 122.617 16.543 122.617 17.885C122.617 19.2379 123.212 20.0167 124.271 20.0167C125.325 20.0167 125.926 19.2325 125.926 17.885Z" fill="white"/>
<path d="M128.813 14.7919H129.985V15.7756H130.076C130.231 15.4222 130.491 15.1262 130.821 14.9285C131.151 14.7308 131.534 14.6412 131.918 14.6725C132.218 14.6498 132.519 14.6953 132.8 14.8054C133.08 14.9156 133.332 15.0876 133.537 15.3087C133.742 15.5299 133.895 15.7945 133.985 16.0829C134.074 16.3715 134.097 16.6765 134.053 16.9753V20.9834H132.836V17.2822C132.836 16.2871 132.405 15.7924 131.504 15.7924C131.3 15.7828 131.097 15.8177 130.908 15.8944C130.718 15.9711 130.548 16.088 130.408 16.2371C130.268 16.3861 130.162 16.5638 130.097 16.7578C130.032 16.9519 130.009 17.1578 130.031 17.3614V20.9836H128.813V14.7919Z" fill="white"/>
<path d="M140.934 13.2505V14.8202H142.272V15.8495H140.934V19.0332C140.934 19.6817 141.202 19.9657 141.807 19.9657C141.962 19.9651 142.117 19.9558 142.272 19.9375V20.9553C142.053 20.9946 141.832 21.0155 141.609 21.0177C140.255 21.0177 139.716 20.5397 139.716 19.346V15.8493H138.736V14.8202H139.716V13.2505H140.934Z" fill="white"/>
<path d="M143.935 12.375H145.143V15.7871H145.239C145.4 15.4304 145.668 15.1326 146.005 14.9342C146.342 14.7356 146.731 14.6462 147.12 14.6779C147.419 14.6615 147.718 14.7115 147.995 14.8244C148.271 14.9372 148.521 15.11 148.724 15.3304C148.926 15.551 149.078 15.8136 149.169 16.0999C149.259 16.386 149.285 16.6887 149.246 16.9861V20.9835H148.026V17.2876C148.026 16.2986 147.567 15.7978 146.706 15.7978C146.497 15.7805 146.287 15.8093 146.09 15.8824C145.892 15.9552 145.714 16.0706 145.566 16.2201C145.418 16.3695 145.304 16.5498 145.233 16.7479C145.162 16.9461 145.135 17.1575 145.152 17.3674V20.9835H143.935V12.375Z" fill="white"/>
<path d="M156.346 19.3117C156.181 19.8777 155.822 20.3672 155.333 20.6946C154.845 21.0221 154.257 21.1666 153.672 21.1031C153.265 21.1138 152.862 21.0357 152.488 20.874C152.115 20.7124 151.781 20.4713 151.51 20.1672C151.238 19.8631 151.037 19.5035 150.918 19.1132C150.798 18.7229 150.765 18.3114 150.822 17.9073C150.768 17.5018 150.801 17.0893 150.919 16.698C151.038 16.3065 151.238 15.9452 151.508 15.6384C151.778 15.3318 152.111 15.0868 152.482 14.9201C152.855 14.7535 153.259 14.669 153.666 14.6725C155.384 14.6725 156.42 15.8495 156.42 17.7937V18.2201H152.062V18.2886C152.043 18.5157 152.071 18.7445 152.145 18.96C152.219 19.1756 152.339 19.3732 152.493 19.5401C152.648 19.7072 152.836 19.8399 153.044 19.9298C153.253 20.0197 153.479 20.0648 153.706 20.0623C153.997 20.0974 154.291 20.0447 154.553 19.9111C154.815 19.7774 155.031 19.5688 155.174 19.3117H156.346ZM152.062 17.3165H155.179C155.194 17.1086 155.166 16.8998 155.096 16.7036C155.026 16.5074 154.916 16.328 154.774 16.177C154.63 16.0259 154.457 15.9065 154.265 15.8265C154.073 15.7465 153.868 15.7077 153.66 15.7125C153.45 15.7098 153.24 15.7495 153.046 15.8291C152.85 15.9089 152.673 16.0268 152.524 16.1764C152.376 16.3259 152.258 16.5037 152.178 16.6995C152.099 16.8953 152.059 17.1051 152.062 17.3165Z" fill="white"/>
</g>
<defs>
<clipPath id="clip0_1_276">
<rect width="185" height="55" fill="white"/>
</clipPath>
</defs>
</svg>
