<svg width="24" height="24" viewBox="0 0 24 24" fill="none" xmlns="http://www.w3.org/2000/svg">
<path d="M18.71 6.89672L18.3628 6.59506L17.3729 7.66165L19.5559 9.56865L21.5506 7.63652L20.5089 6.6202L20.1876 6.92905V4.01294H15.3375V5.44945H18.71V6.89672Z" fill="black"/>
<path d="M22.8059 16.4607L17.3317 12.2733C17.1593 12.1435 16.9475 12.073 16.7295 12.073C16.5116 12.073 16.2997 12.1435 16.1274 12.2733L10.6642 16.4607C10.5186 16.5685 10.412 16.7183 10.3595 16.8886C10.3071 17.059 10.3116 17.2411 10.3724 17.4089C10.436 17.5886 10.5563 17.7443 10.716 17.8539C10.8759 17.9635 11.067 18.0214 11.2626 18.0194H12.4742V21.2515H11.0631V22.688H22.407V21.2515H20.996V18.0194H22.2076C22.4013 18.0225 22.5912 17.9667 22.7508 17.8598C22.9104 17.7529 23.0317 17.6003 23.0978 17.4232C23.1609 17.2535 23.1666 17.0686 23.1141 16.8955C23.0616 16.7224 22.9536 16.5701 22.8059 16.4607ZM16.7332 13.6596L20.5601 16.5829H12.9174L16.7332 13.6596ZM13.9518 18.0194H15.9945V21.2515H13.9518V18.0194ZM19.5184 21.2515H17.472V18.0194H19.5184V21.2515Z" fill="black"/>
<path d="M12.8021 6.88667C12.8021 5.75019 12.4554 4.63926 11.806 3.69433C11.1566 2.7494 10.2336 2.01292 9.15359 1.57802C8.07366 1.14311 6.88532 1.02933 5.73886 1.25103C4.5924 1.47275 3.5393 2.02 2.71275 2.8236C1.88619 3.62719 1.3233 4.65103 1.09526 5.76565C0.867207 6.88027 0.984252 8.0356 1.43158 9.08553C1.8789 10.1355 2.63643 11.0329 3.60836 11.6643C4.58028 12.2957 5.72296 12.6327 6.8919 12.6327C8.45937 12.6327 9.96267 12.0273 11.071 10.9497C12.1794 9.87213 12.8021 8.4106 12.8021 6.88667ZM2.45924 6.88667C2.45924 6.03431 2.71921 5.20111 3.20627 4.49241C3.69334 3.78371 4.38562 3.23135 5.19558 2.90517C6.00555 2.579 6.89677 2.49365 7.75665 2.65994C8.61647 2.82622 9.40635 3.23667 10.0262 3.83936C10.6461 4.44205 11.0683 5.20994 11.2393 6.0459C11.4104 6.88187 11.3226 7.74833 10.9871 8.5358C10.6516 9.32327 10.0835 9.99633 9.35451 10.4699C8.62559 10.9434 7.76859 11.1961 6.8919 11.1961C5.71627 11.1961 4.58881 10.7421 3.75753 9.93393C2.92625 9.12573 2.45924 8.0296 2.45924 6.88667Z" fill="black"/>
<path d="M7.62884 10.1912V9.58065C8.06962 9.51239 8.46747 9.28439 8.7423 8.94245C9.01714 8.60052 9.14859 8.17012 9.11019 7.73779C9.07186 7.30545 8.86649 6.90332 8.53542 6.61223C8.20436 6.32116 7.77222 6.16279 7.32596 6.16896H6.4542C6.38199 6.16108 6.3153 6.1276 6.26688 6.07493C6.21845 6.02227 6.19168 5.9541 6.19168 5.88346C6.19168 5.81281 6.21845 5.74465 6.26688 5.69198C6.3153 5.63931 6.38199 5.60584 6.4542 5.59795H8.36763V4.16145H7.62884V3.58325H6.15131V4.19377C5.71052 4.26203 5.31268 4.49006 5.03784 4.83197C4.763 5.17389 4.63155 5.60431 4.66994 6.03664C4.70832 6.46897 4.91369 6.87112 5.24473 7.16219C5.57577 7.45325 6.00791 7.61165 6.4542 7.60545H7.32596C7.39817 7.61339 7.46482 7.64685 7.5133 7.69952C7.56171 7.75219 7.58845 7.82032 7.58845 7.89099C7.58845 7.96159 7.56171 8.02979 7.5133 8.08245C7.46482 8.13512 7.39817 8.16859 7.32596 8.17645H5.41253V9.61299H6.15131V10.1912H7.62884Z" fill="black"/>
<path d="M6.76936 18.1454L7.00574 18.3789H5.41371V15.2473H3.93616V19.8154H7.12766L6.7435 20.232L7.84059 21.1944L9.80201 19.072L7.81474 17.1327L6.76936 18.1454Z" fill="black"/>
</svg>
